G04 #@! TF.GenerationSoftware,KiCad,Pcbnew,(5.1.10)-1*
G04 #@! TF.CreationDate,2021-08-17T09:51:17-04:00*
G04 #@! TF.ProjectId,milkcrate,6d696c6b-6372-4617-9465-2e6b69636164,rev?*
G04 #@! TF.SameCoordinates,Original*
G04 #@! TF.FileFunction,Copper,L1,Top*
G04 #@! TF.FilePolarity,Positive*
%FSLAX46Y46*%
G04 Gerber Fmt 4.6, Leading zero omitted, Abs format (unit mm)*
G04 Created by KiCad (PCBNEW (5.1.10)-1) date 2021-08-17 09:51:17*
%MOMM*%
%LPD*%
G01*
G04 APERTURE LIST*
G04 #@! TA.AperFunction,ComponentPad*
%ADD10C,2.250000*%
G04 #@! TD*
G04 #@! TA.AperFunction,ComponentPad*
%ADD11R,1.600000X1.600000*%
G04 #@! TD*
G04 #@! TA.AperFunction,ComponentPad*
%ADD12C,1.600000*%
G04 #@! TD*
G04 #@! TA.AperFunction,ComponentPad*
%ADD13R,1.700000X1.700000*%
G04 #@! TD*
G04 #@! TA.AperFunction,ComponentPad*
%ADD14O,1.700000X1.700000*%
G04 #@! TD*
G04 #@! TA.AperFunction,Conductor*
%ADD15C,0.250000*%
G04 #@! TD*
G04 #@! TA.AperFunction,Conductor*
%ADD16C,0.254000*%
G04 #@! TD*
G04 #@! TA.AperFunction,Conductor*
%ADD17C,0.100000*%
G04 #@! TD*
G04 APERTURE END LIST*
D10*
G04 #@! TO.P,MX2,1*
G04 #@! TO.N,SW2*
X131603750Y-58896250D03*
G04 #@! TO.P,MX2,2*
G04 #@! TO.N,GND*
X129063750Y-65246250D03*
G04 #@! TD*
G04 #@! TO.P,MX1,1*
G04 #@! TO.N,SW1*
X136683750Y-37941250D03*
G04 #@! TO.P,MX1,2*
G04 #@! TO.N,GND*
X139223750Y-31591250D03*
G04 #@! TD*
D11*
G04 #@! TO.P,U1,1*
G04 #@! TO.N,Net-(U1-Pad1)*
X126523750Y-26113750D03*
D12*
G04 #@! TO.P,U1,2*
G04 #@! TO.N,Net-(U1-Pad2)*
X126523750Y-28653750D03*
G04 #@! TO.P,U1,3*
G04 #@! TO.N,GND*
X126523750Y-31193750D03*
G04 #@! TO.P,U1,4*
X126523750Y-33733750D03*
G04 #@! TO.P,U1,5*
G04 #@! TO.N,Net-(U1-Pad5)*
X126523750Y-36273750D03*
G04 #@! TO.P,U1,6*
G04 #@! TO.N,Net-(U1-Pad6)*
X126523750Y-38813750D03*
G04 #@! TO.P,U1,7*
G04 #@! TO.N,Net-(U1-Pad7)*
X126523750Y-41353750D03*
G04 #@! TO.P,U1,8*
G04 #@! TO.N,Net-(U1-Pad8)*
X126523750Y-43893750D03*
G04 #@! TO.P,U1,9*
G04 #@! TO.N,SW1*
X126523750Y-46433750D03*
G04 #@! TO.P,U1,10*
G04 #@! TO.N,SW2*
X126523750Y-48973750D03*
G04 #@! TO.P,U1,11*
G04 #@! TO.N,Net-(U1-Pad11)*
X126523750Y-51513750D03*
G04 #@! TO.P,U1,12*
G04 #@! TO.N,Net-(U1-Pad12)*
X126523750Y-54053750D03*
G04 #@! TO.P,U1,13*
G04 #@! TO.N,Net-(U1-Pad13)*
X141763750Y-54053750D03*
G04 #@! TO.P,U1,14*
G04 #@! TO.N,Net-(U1-Pad14)*
X141763750Y-51513750D03*
G04 #@! TO.P,U1,15*
G04 #@! TO.N,Net-(U1-Pad15)*
X141763750Y-48973750D03*
G04 #@! TO.P,U1,16*
G04 #@! TO.N,/RGB*
X141763750Y-46433750D03*
G04 #@! TO.P,U1,17*
G04 #@! TO.N,Net-(U1-Pad17)*
X141763750Y-43893750D03*
G04 #@! TO.P,U1,18*
G04 #@! TO.N,Net-(U1-Pad18)*
X141763750Y-41353750D03*
G04 #@! TO.P,U1,19*
G04 #@! TO.N,Net-(U1-Pad19)*
X141763750Y-38813750D03*
G04 #@! TO.P,U1,20*
G04 #@! TO.N,Net-(U1-Pad20)*
X141763750Y-36273750D03*
G04 #@! TO.P,U1,21*
G04 #@! TO.N,VCC*
X141763750Y-33733750D03*
G04 #@! TO.P,U1,22*
G04 #@! TO.N,/RST*
X141763750Y-31193750D03*
G04 #@! TO.P,U1,23*
G04 #@! TO.N,GND*
X141763750Y-28653750D03*
G04 #@! TO.P,U1,24*
G04 #@! TO.N,Net-(U1-Pad24)*
X141763750Y-26113750D03*
G04 #@! TD*
D13*
G04 #@! TO.P,J2,1*
G04 #@! TO.N,VCC*
X136652000Y-71170800D03*
D14*
G04 #@! TO.P,J2,2*
G04 #@! TO.N,/RGB*
X134112000Y-71170800D03*
G04 #@! TO.P,J2,3*
G04 #@! TO.N,GND*
X131572000Y-71170800D03*
G04 #@! TD*
D13*
G04 #@! TO.P,J1,1*
G04 #@! TO.N,GND*
X148920200Y-47053500D03*
D14*
G04 #@! TO.P,J1,2*
G04 #@! TO.N,/RST*
X148920200Y-49593500D03*
G04 #@! TD*
D15*
G04 #@! TO.N,/RST*
X143762849Y-33192849D02*
X141763750Y-31193750D01*
X143762849Y-44436149D02*
X143762849Y-33192849D01*
X148920200Y-49593500D02*
X143762849Y-44436149D01*
G04 #@! TO.N,GND*
X141763750Y-29051250D02*
X141763750Y-28653750D01*
X139223750Y-31591250D02*
X141763750Y-29051250D01*
X129063750Y-68662550D02*
X131572000Y-71170800D01*
X129063750Y-65246250D02*
X129063750Y-68662550D01*
G04 #@! TO.N,/RGB*
X140638749Y-47558751D02*
X141763750Y-46433750D01*
X140638749Y-64644051D02*
X140638749Y-47558751D01*
X134112000Y-71170800D02*
X140638749Y-64644051D01*
G04 #@! TO.N,VCC*
X142888751Y-34858751D02*
X141763750Y-33733750D01*
X142888751Y-64934049D02*
X142888751Y-34858751D01*
X136652000Y-71170800D02*
X142888751Y-64934049D01*
G04 #@! TO.N,SW1*
X129782240Y-46433750D02*
X126523750Y-46433750D01*
X136683750Y-39532240D02*
X129782240Y-46433750D01*
X136683750Y-37941250D02*
X136683750Y-39532240D01*
G04 #@! TO.N,SW2*
X131603750Y-54053750D02*
X126523750Y-48973750D01*
X131603750Y-58896250D02*
X131603750Y-54053750D01*
G04 #@! TD*
D16*
G04 #@! TO.N,GND*
X150230038Y-24099569D02*
X150402737Y-24151710D01*
X150562018Y-24236402D01*
X150701819Y-24350419D01*
X150816808Y-24489417D01*
X150902610Y-24648105D01*
X150955955Y-24820435D01*
X150978000Y-25030180D01*
X150978001Y-71798910D01*
X150957231Y-72010738D01*
X150905091Y-72183436D01*
X150820399Y-72342718D01*
X150706378Y-72482521D01*
X150567385Y-72597506D01*
X150408695Y-72683310D01*
X150236365Y-72736655D01*
X150026619Y-72758700D01*
X118263530Y-72758700D01*
X118051712Y-72737931D01*
X117879014Y-72685791D01*
X117719732Y-72601099D01*
X117579929Y-72487078D01*
X117464944Y-72348085D01*
X117379140Y-72189395D01*
X117325795Y-72017065D01*
X117303500Y-71804940D01*
X117303500Y-69478607D01*
X120046750Y-69478607D01*
X120046750Y-69903893D01*
X120129720Y-70321007D01*
X120292469Y-70713920D01*
X120528746Y-71067532D01*
X120829468Y-71368254D01*
X121183080Y-71604531D01*
X121575993Y-71767280D01*
X121993107Y-71850250D01*
X122418393Y-71850250D01*
X122835507Y-71767280D01*
X123228420Y-71604531D01*
X123343418Y-71527691D01*
X130130519Y-71527691D01*
X130227843Y-71802052D01*
X130376822Y-72052155D01*
X130571731Y-72268388D01*
X130805080Y-72442441D01*
X131067901Y-72567625D01*
X131215110Y-72612276D01*
X131445000Y-72490955D01*
X131445000Y-71297800D01*
X130251186Y-71297800D01*
X130130519Y-71527691D01*
X123343418Y-71527691D01*
X123582032Y-71368254D01*
X123882754Y-71067532D01*
X124052220Y-70813909D01*
X130130519Y-70813909D01*
X130251186Y-71043800D01*
X131445000Y-71043800D01*
X131445000Y-69850645D01*
X131699000Y-69850645D01*
X131699000Y-71043800D01*
X131719000Y-71043800D01*
X131719000Y-71297800D01*
X131699000Y-71297800D01*
X131699000Y-72490955D01*
X131928890Y-72612276D01*
X132076099Y-72567625D01*
X132338920Y-72442441D01*
X132572269Y-72268388D01*
X132767178Y-72052155D01*
X132836805Y-71935266D01*
X132958525Y-72117432D01*
X133165368Y-72324275D01*
X133408589Y-72486790D01*
X133678842Y-72598732D01*
X133965740Y-72655800D01*
X134258260Y-72655800D01*
X134545158Y-72598732D01*
X134815411Y-72486790D01*
X135058632Y-72324275D01*
X135190487Y-72192420D01*
X135212498Y-72264980D01*
X135271463Y-72375294D01*
X135350815Y-72471985D01*
X135447506Y-72551337D01*
X135557820Y-72610302D01*
X135677518Y-72646612D01*
X135802000Y-72658872D01*
X137502000Y-72658872D01*
X137626482Y-72646612D01*
X137746180Y-72610302D01*
X137856494Y-72551337D01*
X137953185Y-72471985D01*
X138032537Y-72375294D01*
X138091502Y-72264980D01*
X138127812Y-72145282D01*
X138140072Y-72020800D01*
X138140072Y-70757529D01*
X139418994Y-69478607D01*
X143922750Y-69478607D01*
X143922750Y-69903893D01*
X144005720Y-70321007D01*
X144168469Y-70713920D01*
X144404746Y-71067532D01*
X144705468Y-71368254D01*
X145059080Y-71604531D01*
X145451993Y-71767280D01*
X145869107Y-71850250D01*
X146294393Y-71850250D01*
X146711507Y-71767280D01*
X147104420Y-71604531D01*
X147458032Y-71368254D01*
X147758754Y-71067532D01*
X147995031Y-70713920D01*
X148157780Y-70321007D01*
X148240750Y-69903893D01*
X148240750Y-69478607D01*
X148157780Y-69061493D01*
X147995031Y-68668580D01*
X147758754Y-68314968D01*
X147458032Y-68014246D01*
X147104420Y-67777969D01*
X146711507Y-67615220D01*
X146294393Y-67532250D01*
X145869107Y-67532250D01*
X145451993Y-67615220D01*
X145059080Y-67777969D01*
X144705468Y-68014246D01*
X144404746Y-68314968D01*
X144168469Y-68668580D01*
X144005720Y-69061493D01*
X143922750Y-69478607D01*
X139418994Y-69478607D01*
X143399755Y-65497847D01*
X143428752Y-65474050D01*
X143523725Y-65358325D01*
X143594297Y-65226296D01*
X143637754Y-65083035D01*
X143648751Y-64971382D01*
X143648751Y-64971372D01*
X143652427Y-64934049D01*
X143648751Y-64896726D01*
X143648751Y-55447118D01*
X143752049Y-55696501D01*
X144039750Y-56127076D01*
X144405924Y-56493250D01*
X144836499Y-56780951D01*
X145314928Y-56979123D01*
X145822826Y-57080150D01*
X146340674Y-57080150D01*
X146848572Y-56979123D01*
X147327001Y-56780951D01*
X147757576Y-56493250D01*
X148123750Y-56127076D01*
X148411451Y-55696501D01*
X148609623Y-55218072D01*
X148710650Y-54710174D01*
X148710650Y-54192326D01*
X148609623Y-53684428D01*
X148411451Y-53205999D01*
X148123750Y-52775424D01*
X147757576Y-52409250D01*
X147327001Y-52121549D01*
X146848572Y-51923377D01*
X146340674Y-51822350D01*
X145822826Y-51822350D01*
X145314928Y-51923377D01*
X144836499Y-52121549D01*
X144405924Y-52409250D01*
X144039750Y-52775424D01*
X143752049Y-53205999D01*
X143648751Y-53455382D01*
X143648751Y-45396852D01*
X147478990Y-49227092D01*
X147435200Y-49447240D01*
X147435200Y-49739760D01*
X147492268Y-50026658D01*
X147604210Y-50296911D01*
X147766725Y-50540132D01*
X147973568Y-50746975D01*
X148216789Y-50909490D01*
X148487042Y-51021432D01*
X148773940Y-51078500D01*
X149066460Y-51078500D01*
X149353358Y-51021432D01*
X149623611Y-50909490D01*
X149866832Y-50746975D01*
X150073675Y-50540132D01*
X150236190Y-50296911D01*
X150348132Y-50026658D01*
X150405200Y-49739760D01*
X150405200Y-49447240D01*
X150348132Y-49160342D01*
X150236190Y-48890089D01*
X150073675Y-48646868D01*
X149941820Y-48515013D01*
X150014380Y-48493002D01*
X150124694Y-48434037D01*
X150221385Y-48354685D01*
X150300737Y-48257994D01*
X150359702Y-48147680D01*
X150396012Y-48027982D01*
X150408272Y-47903500D01*
X150405200Y-47339250D01*
X150246450Y-47180500D01*
X149047200Y-47180500D01*
X149047200Y-47200500D01*
X148793200Y-47200500D01*
X148793200Y-47180500D01*
X148773200Y-47180500D01*
X148773200Y-46926500D01*
X148793200Y-46926500D01*
X148793200Y-45727250D01*
X149047200Y-45727250D01*
X149047200Y-46926500D01*
X150246450Y-46926500D01*
X150405200Y-46767750D01*
X150408272Y-46203500D01*
X150396012Y-46079018D01*
X150359702Y-45959320D01*
X150300737Y-45849006D01*
X150221385Y-45752315D01*
X150124694Y-45672963D01*
X150014380Y-45613998D01*
X149894682Y-45577688D01*
X149770200Y-45565428D01*
X149205950Y-45568500D01*
X149047200Y-45727250D01*
X148793200Y-45727250D01*
X148634450Y-45568500D01*
X148070200Y-45565428D01*
X147945718Y-45577688D01*
X147826020Y-45613998D01*
X147715706Y-45672963D01*
X147619015Y-45752315D01*
X147539663Y-45849006D01*
X147480698Y-45959320D01*
X147444388Y-46079018D01*
X147432128Y-46203500D01*
X147435200Y-46767750D01*
X147593948Y-46926498D01*
X147435200Y-46926498D01*
X147435200Y-47033698D01*
X145315797Y-44914296D01*
X145822826Y-45015150D01*
X146340674Y-45015150D01*
X146848572Y-44914123D01*
X147327001Y-44715951D01*
X147757576Y-44428250D01*
X148123750Y-44062076D01*
X148411451Y-43631501D01*
X148609623Y-43153072D01*
X148710650Y-42645174D01*
X148710650Y-42127326D01*
X148609623Y-41619428D01*
X148411451Y-41140999D01*
X148123750Y-40710424D01*
X147757576Y-40344250D01*
X147327001Y-40056549D01*
X146848572Y-39858377D01*
X146340674Y-39757350D01*
X145822826Y-39757350D01*
X145314928Y-39858377D01*
X144836499Y-40056549D01*
X144522849Y-40266123D01*
X144522849Y-33230172D01*
X144526525Y-33192849D01*
X144522849Y-33155526D01*
X144522849Y-33155516D01*
X144511852Y-33043863D01*
X144468395Y-32900602D01*
X144460589Y-32885999D01*
X144397823Y-32768572D01*
X144326648Y-32681846D01*
X144302850Y-32652848D01*
X144273852Y-32629050D01*
X143162438Y-31517636D01*
X143198750Y-31335085D01*
X143198750Y-31052415D01*
X143143603Y-30775176D01*
X143035430Y-30514023D01*
X142878387Y-30278991D01*
X142678509Y-30079113D01*
X142444622Y-29922835D01*
X142505264Y-29890421D01*
X142576847Y-29646452D01*
X141763750Y-28833355D01*
X140950653Y-29646452D01*
X141022236Y-29890421D01*
X141086742Y-29920944D01*
X141084023Y-29922070D01*
X140848991Y-30079113D01*
X140649113Y-30278991D01*
X140492070Y-30514023D01*
X140474369Y-30556757D01*
X140448281Y-30546324D01*
X139403355Y-31591250D01*
X140448281Y-32636176D01*
X140725464Y-32525329D01*
X140837935Y-32297331D01*
X140848991Y-32308387D01*
X141081509Y-32463750D01*
X140848991Y-32619113D01*
X140649113Y-32818991D01*
X140492070Y-33054023D01*
X140383897Y-33315176D01*
X140328750Y-33592415D01*
X140328750Y-33875085D01*
X140383897Y-34152324D01*
X140492070Y-34413477D01*
X140649113Y-34648509D01*
X140848991Y-34848387D01*
X141081509Y-35003750D01*
X140848991Y-35159113D01*
X140649113Y-35358991D01*
X140492070Y-35594023D01*
X140383897Y-35855176D01*
X140328750Y-36132415D01*
X140328750Y-36415085D01*
X140383897Y-36692324D01*
X140492070Y-36953477D01*
X140649113Y-37188509D01*
X140848991Y-37388387D01*
X141081509Y-37543750D01*
X140848991Y-37699113D01*
X140649113Y-37898991D01*
X140492070Y-38134023D01*
X140383897Y-38395176D01*
X140328750Y-38672415D01*
X140328750Y-38955085D01*
X140383897Y-39232324D01*
X140492070Y-39493477D01*
X140649113Y-39728509D01*
X140848991Y-39928387D01*
X141081509Y-40083750D01*
X140848991Y-40239113D01*
X140649113Y-40438991D01*
X140492070Y-40674023D01*
X140383897Y-40935176D01*
X140328750Y-41212415D01*
X140328750Y-41495085D01*
X140383897Y-41772324D01*
X140492070Y-42033477D01*
X140649113Y-42268509D01*
X140848991Y-42468387D01*
X141081509Y-42623750D01*
X140848991Y-42779113D01*
X140649113Y-42978991D01*
X140492070Y-43214023D01*
X140383897Y-43475176D01*
X140328750Y-43752415D01*
X140328750Y-44035085D01*
X140383897Y-44312324D01*
X140492070Y-44573477D01*
X140649113Y-44808509D01*
X140848991Y-45008387D01*
X141081509Y-45163750D01*
X140848991Y-45319113D01*
X140649113Y-45518991D01*
X140492070Y-45754023D01*
X140383897Y-46015176D01*
X140328750Y-46292415D01*
X140328750Y-46575085D01*
X140365062Y-46757637D01*
X140127747Y-46994952D01*
X140098749Y-47018750D01*
X140074951Y-47047748D01*
X140074950Y-47047749D01*
X140003775Y-47134475D01*
X139933203Y-47266505D01*
X139889747Y-47409766D01*
X139875073Y-47558751D01*
X139878750Y-47596084D01*
X139878749Y-64329249D01*
X134478408Y-69729591D01*
X134258260Y-69685800D01*
X133965740Y-69685800D01*
X133678842Y-69742868D01*
X133408589Y-69854810D01*
X133165368Y-70017325D01*
X132958525Y-70224168D01*
X132836805Y-70406334D01*
X132767178Y-70289445D01*
X132572269Y-70073212D01*
X132338920Y-69899159D01*
X132076099Y-69773975D01*
X131928890Y-69729324D01*
X131699000Y-69850645D01*
X131445000Y-69850645D01*
X131215110Y-69729324D01*
X131067901Y-69773975D01*
X130805080Y-69899159D01*
X130571731Y-70073212D01*
X130376822Y-70289445D01*
X130227843Y-70539548D01*
X130130519Y-70813909D01*
X124052220Y-70813909D01*
X124119031Y-70713920D01*
X124281780Y-70321007D01*
X124364750Y-69903893D01*
X124364750Y-69478607D01*
X124281780Y-69061493D01*
X124119031Y-68668580D01*
X123882754Y-68314968D01*
X123582032Y-68014246D01*
X123228420Y-67777969D01*
X122889364Y-67637528D01*
X132633750Y-67637528D01*
X132633750Y-67934972D01*
X132691779Y-68226701D01*
X132805606Y-68501503D01*
X132970857Y-68748819D01*
X133181181Y-68959143D01*
X133428497Y-69124394D01*
X133703299Y-69238221D01*
X133995028Y-69296250D01*
X134292472Y-69296250D01*
X134584201Y-69238221D01*
X134859003Y-69124394D01*
X135106319Y-68959143D01*
X135316643Y-68748819D01*
X135481894Y-68501503D01*
X135595721Y-68226701D01*
X135653750Y-67934972D01*
X135653750Y-67637528D01*
X135595721Y-67345799D01*
X135481894Y-67070997D01*
X135316643Y-66823681D01*
X135106319Y-66613357D01*
X134859003Y-66448106D01*
X134584201Y-66334279D01*
X134292472Y-66276250D01*
X133995028Y-66276250D01*
X133703299Y-66334279D01*
X133428497Y-66448106D01*
X133181181Y-66613357D01*
X132970857Y-66823681D01*
X132805606Y-67070997D01*
X132691779Y-67345799D01*
X132633750Y-67637528D01*
X122889364Y-67637528D01*
X122835507Y-67615220D01*
X122418393Y-67532250D01*
X121993107Y-67532250D01*
X121575993Y-67615220D01*
X121183080Y-67777969D01*
X120829468Y-68014246D01*
X120528746Y-68314968D01*
X120292469Y-68668580D01*
X120129720Y-69061493D01*
X120046750Y-69478607D01*
X117303500Y-69478607D01*
X117303500Y-66470781D01*
X128018824Y-66470781D01*
X128129671Y-66747964D01*
X128440590Y-66901339D01*
X128775455Y-66991110D01*
X129121400Y-67013826D01*
X129465130Y-66968616D01*
X129793435Y-66857216D01*
X129997829Y-66747964D01*
X130108676Y-66470781D01*
X129063750Y-65425855D01*
X128018824Y-66470781D01*
X117303500Y-66470781D01*
X117303500Y-65303900D01*
X127296174Y-65303900D01*
X127341384Y-65647630D01*
X127452784Y-65975935D01*
X127562036Y-66180329D01*
X127839219Y-66291176D01*
X128884145Y-65246250D01*
X129243355Y-65246250D01*
X130288281Y-66291176D01*
X130565464Y-66180329D01*
X130718839Y-65869410D01*
X130808610Y-65534545D01*
X130831326Y-65188600D01*
X130786116Y-64844870D01*
X130674716Y-64516565D01*
X130565464Y-64312171D01*
X130288281Y-64201324D01*
X129243355Y-65246250D01*
X128884145Y-65246250D01*
X127839219Y-64201324D01*
X127562036Y-64312171D01*
X127408661Y-64623090D01*
X127318890Y-64957955D01*
X127296174Y-65303900D01*
X117303500Y-65303900D01*
X117303500Y-64021719D01*
X128018824Y-64021719D01*
X129063750Y-65066645D01*
X130108676Y-64021719D01*
X129997829Y-63744536D01*
X129686910Y-63591161D01*
X129352045Y-63501390D01*
X129006100Y-63478674D01*
X128662370Y-63523884D01*
X128334065Y-63635284D01*
X128129671Y-63744536D01*
X128018824Y-64021719D01*
X117303500Y-64021719D01*
X117303500Y-62447326D01*
X131514850Y-62447326D01*
X131514850Y-62965174D01*
X131615877Y-63473072D01*
X131814049Y-63951501D01*
X132101750Y-64382076D01*
X132467924Y-64748250D01*
X132898499Y-65035951D01*
X133376928Y-65234123D01*
X133884826Y-65335150D01*
X134402674Y-65335150D01*
X134910572Y-65234123D01*
X135389001Y-65035951D01*
X135819576Y-64748250D01*
X136185750Y-64382076D01*
X136473451Y-63951501D01*
X136671623Y-63473072D01*
X136772650Y-62965174D01*
X136772650Y-62447326D01*
X136671623Y-61939428D01*
X136473451Y-61460999D01*
X136185750Y-61030424D01*
X135819576Y-60664250D01*
X135389001Y-60376549D01*
X134910572Y-60178377D01*
X134402674Y-60077350D01*
X133884826Y-60077350D01*
X133376928Y-60178377D01*
X132898499Y-60376549D01*
X132467924Y-60664250D01*
X132101750Y-61030424D01*
X131814049Y-61460999D01*
X131615877Y-61939428D01*
X131514850Y-62447326D01*
X117303500Y-62447326D01*
X117303500Y-54192326D01*
X119576850Y-54192326D01*
X119576850Y-54710174D01*
X119677877Y-55218072D01*
X119876049Y-55696501D01*
X120163750Y-56127076D01*
X120529924Y-56493250D01*
X120960499Y-56780951D01*
X121438928Y-56979123D01*
X121946826Y-57080150D01*
X122464674Y-57080150D01*
X122972572Y-56979123D01*
X123451001Y-56780951D01*
X123881576Y-56493250D01*
X124247750Y-56127076D01*
X124535451Y-55696501D01*
X124733623Y-55218072D01*
X124834650Y-54710174D01*
X124834650Y-54192326D01*
X124733623Y-53684428D01*
X124535451Y-53205999D01*
X124247750Y-52775424D01*
X123881576Y-52409250D01*
X123451001Y-52121549D01*
X122972572Y-51923377D01*
X122464674Y-51822350D01*
X121946826Y-51822350D01*
X121438928Y-51923377D01*
X120960499Y-52121549D01*
X120529924Y-52409250D01*
X120163750Y-52775424D01*
X119876049Y-53205999D01*
X119677877Y-53684428D01*
X119576850Y-54192326D01*
X117303500Y-54192326D01*
X117303500Y-42127326D01*
X119576850Y-42127326D01*
X119576850Y-42645174D01*
X119677877Y-43153072D01*
X119876049Y-43631501D01*
X120163750Y-44062076D01*
X120529924Y-44428250D01*
X120960499Y-44715951D01*
X121438928Y-44914123D01*
X121946826Y-45015150D01*
X122464674Y-45015150D01*
X122972572Y-44914123D01*
X123451001Y-44715951D01*
X123881576Y-44428250D01*
X124247750Y-44062076D01*
X124535451Y-43631501D01*
X124733623Y-43153072D01*
X124834650Y-42645174D01*
X124834650Y-42127326D01*
X124733623Y-41619428D01*
X124535451Y-41140999D01*
X124247750Y-40710424D01*
X123881576Y-40344250D01*
X123451001Y-40056549D01*
X122972572Y-39858377D01*
X122464674Y-39757350D01*
X121946826Y-39757350D01*
X121438928Y-39858377D01*
X120960499Y-40056549D01*
X120529924Y-40344250D01*
X120163750Y-40710424D01*
X119876049Y-41140999D01*
X119677877Y-41619428D01*
X119576850Y-42127326D01*
X117303500Y-42127326D01*
X117303500Y-36132415D01*
X125088750Y-36132415D01*
X125088750Y-36415085D01*
X125143897Y-36692324D01*
X125252070Y-36953477D01*
X125409113Y-37188509D01*
X125608991Y-37388387D01*
X125841509Y-37543750D01*
X125608991Y-37699113D01*
X125409113Y-37898991D01*
X125252070Y-38134023D01*
X125143897Y-38395176D01*
X125088750Y-38672415D01*
X125088750Y-38955085D01*
X125143897Y-39232324D01*
X125252070Y-39493477D01*
X125409113Y-39728509D01*
X125608991Y-39928387D01*
X125841509Y-40083750D01*
X125608991Y-40239113D01*
X125409113Y-40438991D01*
X125252070Y-40674023D01*
X125143897Y-40935176D01*
X125088750Y-41212415D01*
X125088750Y-41495085D01*
X125143897Y-41772324D01*
X125252070Y-42033477D01*
X125409113Y-42268509D01*
X125608991Y-42468387D01*
X125841509Y-42623750D01*
X125608991Y-42779113D01*
X125409113Y-42978991D01*
X125252070Y-43214023D01*
X125143897Y-43475176D01*
X125088750Y-43752415D01*
X125088750Y-44035085D01*
X125143897Y-44312324D01*
X125252070Y-44573477D01*
X125409113Y-44808509D01*
X125608991Y-45008387D01*
X125841509Y-45163750D01*
X125608991Y-45319113D01*
X125409113Y-45518991D01*
X125252070Y-45754023D01*
X125143897Y-46015176D01*
X125088750Y-46292415D01*
X125088750Y-46575085D01*
X125143897Y-46852324D01*
X125252070Y-47113477D01*
X125409113Y-47348509D01*
X125608991Y-47548387D01*
X125841509Y-47703750D01*
X125608991Y-47859113D01*
X125409113Y-48058991D01*
X125252070Y-48294023D01*
X125143897Y-48555176D01*
X125088750Y-48832415D01*
X125088750Y-49115085D01*
X125143897Y-49392324D01*
X125252070Y-49653477D01*
X125409113Y-49888509D01*
X125608991Y-50088387D01*
X125841509Y-50243750D01*
X125608991Y-50399113D01*
X125409113Y-50598991D01*
X125252070Y-50834023D01*
X125143897Y-51095176D01*
X125088750Y-51372415D01*
X125088750Y-51655085D01*
X125143897Y-51932324D01*
X125252070Y-52193477D01*
X125409113Y-52428509D01*
X125608991Y-52628387D01*
X125841509Y-52783750D01*
X125608991Y-52939113D01*
X125409113Y-53138991D01*
X125252070Y-53374023D01*
X125143897Y-53635176D01*
X125088750Y-53912415D01*
X125088750Y-54195085D01*
X125143897Y-54472324D01*
X125252070Y-54733477D01*
X125409113Y-54968509D01*
X125608991Y-55168387D01*
X125844023Y-55325430D01*
X126105176Y-55433603D01*
X126382415Y-55488750D01*
X126665085Y-55488750D01*
X126942324Y-55433603D01*
X127203477Y-55325430D01*
X127438509Y-55168387D01*
X127638387Y-54968509D01*
X127795430Y-54733477D01*
X127903603Y-54472324D01*
X127958750Y-54195085D01*
X127958750Y-53912415D01*
X127903603Y-53635176D01*
X127795430Y-53374023D01*
X127638387Y-53138991D01*
X127438509Y-52939113D01*
X127205991Y-52783750D01*
X127438509Y-52628387D01*
X127638387Y-52428509D01*
X127795430Y-52193477D01*
X127903603Y-51932324D01*
X127958750Y-51655085D01*
X127958750Y-51483551D01*
X130843751Y-54368553D01*
X130843750Y-57306042D01*
X130770077Y-57336558D01*
X130481815Y-57529169D01*
X130236669Y-57774315D01*
X130044058Y-58062577D01*
X129911386Y-58382877D01*
X129843750Y-58722905D01*
X129843750Y-59069595D01*
X129911386Y-59409623D01*
X130044058Y-59729923D01*
X130236669Y-60018185D01*
X130481815Y-60263331D01*
X130770077Y-60455942D01*
X131090377Y-60588614D01*
X131430405Y-60656250D01*
X131777095Y-60656250D01*
X132117123Y-60588614D01*
X132437423Y-60455942D01*
X132725685Y-60263331D01*
X132970831Y-60018185D01*
X133163442Y-59729923D01*
X133296114Y-59409623D01*
X133363750Y-59069595D01*
X133363750Y-58921132D01*
X133428497Y-58964394D01*
X133703299Y-59078221D01*
X133995028Y-59136250D01*
X134292472Y-59136250D01*
X134584201Y-59078221D01*
X134859003Y-58964394D01*
X135106319Y-58799143D01*
X135316643Y-58588819D01*
X135481894Y-58341503D01*
X135595721Y-58066701D01*
X135653750Y-57774972D01*
X135653750Y-57477528D01*
X135595721Y-57185799D01*
X135481894Y-56910997D01*
X135316643Y-56663681D01*
X135106319Y-56453357D01*
X134859003Y-56288106D01*
X134584201Y-56174279D01*
X134292472Y-56116250D01*
X133995028Y-56116250D01*
X133703299Y-56174279D01*
X133428497Y-56288106D01*
X133181181Y-56453357D01*
X132970857Y-56663681D01*
X132805606Y-56910997D01*
X132691779Y-57185799D01*
X132635469Y-57468888D01*
X132437423Y-57336558D01*
X132363750Y-57306042D01*
X132363750Y-54091073D01*
X132367426Y-54053750D01*
X132363750Y-54016427D01*
X132363750Y-54016417D01*
X132352753Y-53904764D01*
X132309296Y-53761503D01*
X132241772Y-53635176D01*
X132238724Y-53629473D01*
X132167549Y-53542747D01*
X132143751Y-53513749D01*
X132114753Y-53489951D01*
X127922438Y-49297637D01*
X127958750Y-49115085D01*
X127958750Y-48832415D01*
X127903603Y-48555176D01*
X127795430Y-48294023D01*
X127638387Y-48058991D01*
X127438509Y-47859113D01*
X127205991Y-47703750D01*
X127438509Y-47548387D01*
X127638387Y-47348509D01*
X127741793Y-47193750D01*
X129744918Y-47193750D01*
X129782240Y-47197426D01*
X129819562Y-47193750D01*
X129819573Y-47193750D01*
X129931226Y-47182753D01*
X130074487Y-47139296D01*
X130206516Y-47068724D01*
X130322241Y-46973751D01*
X130346044Y-46944747D01*
X137194753Y-40096039D01*
X137223751Y-40072241D01*
X137304460Y-39973897D01*
X137318724Y-39956517D01*
X137389296Y-39824487D01*
X137418410Y-39728509D01*
X137432753Y-39681226D01*
X137443750Y-39569573D01*
X137443750Y-39569564D01*
X137447426Y-39532241D01*
X137447208Y-39530026D01*
X137517423Y-39500942D01*
X137805685Y-39308331D01*
X138050831Y-39063185D01*
X138243442Y-38774923D01*
X138376114Y-38454623D01*
X138443750Y-38114595D01*
X138443750Y-37767905D01*
X138376114Y-37427877D01*
X138243442Y-37107577D01*
X138050831Y-36819315D01*
X137805685Y-36574169D01*
X137517423Y-36381558D01*
X137197123Y-36248886D01*
X136857095Y-36181250D01*
X136510405Y-36181250D01*
X136170377Y-36248886D01*
X135850077Y-36381558D01*
X135561815Y-36574169D01*
X135316669Y-36819315D01*
X135124058Y-37107577D01*
X134991386Y-37427877D01*
X134923750Y-37767905D01*
X134923750Y-37916368D01*
X134859003Y-37873106D01*
X134584201Y-37759279D01*
X134292472Y-37701250D01*
X133995028Y-37701250D01*
X133703299Y-37759279D01*
X133428497Y-37873106D01*
X133181181Y-38038357D01*
X132970857Y-38248681D01*
X132805606Y-38495997D01*
X132691779Y-38770799D01*
X132633750Y-39062528D01*
X132633750Y-39359972D01*
X132691779Y-39651701D01*
X132805606Y-39926503D01*
X132970857Y-40173819D01*
X133181181Y-40384143D01*
X133428497Y-40549394D01*
X133703299Y-40663221D01*
X133995028Y-40721250D01*
X134292472Y-40721250D01*
X134451589Y-40689599D01*
X129467439Y-45673750D01*
X127741793Y-45673750D01*
X127638387Y-45518991D01*
X127438509Y-45319113D01*
X127205991Y-45163750D01*
X127438509Y-45008387D01*
X127638387Y-44808509D01*
X127795430Y-44573477D01*
X127903603Y-44312324D01*
X127958750Y-44035085D01*
X127958750Y-43752415D01*
X127903603Y-43475176D01*
X127795430Y-43214023D01*
X127638387Y-42978991D01*
X127438509Y-42779113D01*
X127205991Y-42623750D01*
X127438509Y-42468387D01*
X127638387Y-42268509D01*
X127795430Y-42033477D01*
X127903603Y-41772324D01*
X127958750Y-41495085D01*
X127958750Y-41212415D01*
X127903603Y-40935176D01*
X127795430Y-40674023D01*
X127638387Y-40438991D01*
X127438509Y-40239113D01*
X127205991Y-40083750D01*
X127438509Y-39928387D01*
X127638387Y-39728509D01*
X127795430Y-39493477D01*
X127903603Y-39232324D01*
X127958750Y-38955085D01*
X127958750Y-38672415D01*
X127903603Y-38395176D01*
X127795430Y-38134023D01*
X127638387Y-37898991D01*
X127438509Y-37699113D01*
X127205991Y-37543750D01*
X127438509Y-37388387D01*
X127638387Y-37188509D01*
X127795430Y-36953477D01*
X127903603Y-36692324D01*
X127958750Y-36415085D01*
X127958750Y-36132415D01*
X127903603Y-35855176D01*
X127795430Y-35594023D01*
X127638387Y-35358991D01*
X127438509Y-35159113D01*
X127204622Y-35002835D01*
X127265264Y-34970421D01*
X127336847Y-34726452D01*
X126523750Y-33913355D01*
X125710653Y-34726452D01*
X125782236Y-34970421D01*
X125846742Y-35000944D01*
X125844023Y-35002070D01*
X125608991Y-35159113D01*
X125409113Y-35358991D01*
X125252070Y-35594023D01*
X125143897Y-35855176D01*
X125088750Y-36132415D01*
X117303500Y-36132415D01*
X117303500Y-33804262D01*
X125083533Y-33804262D01*
X125124963Y-34083880D01*
X125220147Y-34350042D01*
X125287079Y-34475264D01*
X125531048Y-34546847D01*
X126344145Y-33733750D01*
X126703355Y-33733750D01*
X127516452Y-34546847D01*
X127760421Y-34475264D01*
X127881321Y-34219754D01*
X127950050Y-33945566D01*
X127953660Y-33872326D01*
X131514850Y-33872326D01*
X131514850Y-34390174D01*
X131615877Y-34898072D01*
X131814049Y-35376501D01*
X132101750Y-35807076D01*
X132467924Y-36173250D01*
X132898499Y-36460951D01*
X133376928Y-36659123D01*
X133884826Y-36760150D01*
X134402674Y-36760150D01*
X134910572Y-36659123D01*
X135389001Y-36460951D01*
X135819576Y-36173250D01*
X136185750Y-35807076D01*
X136473451Y-35376501D01*
X136671623Y-34898072D01*
X136772650Y-34390174D01*
X136772650Y-33872326D01*
X136671623Y-33364428D01*
X136473451Y-32885999D01*
X136426533Y-32815781D01*
X138178824Y-32815781D01*
X138289671Y-33092964D01*
X138600590Y-33246339D01*
X138935455Y-33336110D01*
X139281400Y-33358826D01*
X139625130Y-33313616D01*
X139953435Y-33202216D01*
X140157829Y-33092964D01*
X140268676Y-32815781D01*
X139223750Y-31770855D01*
X138178824Y-32815781D01*
X136426533Y-32815781D01*
X136185750Y-32455424D01*
X135819576Y-32089250D01*
X135389001Y-31801549D01*
X135020475Y-31648900D01*
X137456174Y-31648900D01*
X137501384Y-31992630D01*
X137612784Y-32320935D01*
X137722036Y-32525329D01*
X137999219Y-32636176D01*
X139044145Y-31591250D01*
X137999219Y-30546324D01*
X137722036Y-30657171D01*
X137568661Y-30968090D01*
X137478890Y-31302955D01*
X137456174Y-31648900D01*
X135020475Y-31648900D01*
X134910572Y-31603377D01*
X134402674Y-31502350D01*
X133884826Y-31502350D01*
X133376928Y-31603377D01*
X132898499Y-31801549D01*
X132467924Y-32089250D01*
X132101750Y-32455424D01*
X131814049Y-32885999D01*
X131615877Y-33364428D01*
X131514850Y-33872326D01*
X127953660Y-33872326D01*
X127963967Y-33663238D01*
X127922537Y-33383620D01*
X127827353Y-33117458D01*
X127760421Y-32992236D01*
X127516452Y-32920653D01*
X126703355Y-33733750D01*
X126344145Y-33733750D01*
X125531048Y-32920653D01*
X125287079Y-32992236D01*
X125166179Y-33247746D01*
X125097450Y-33521934D01*
X125083533Y-33804262D01*
X117303500Y-33804262D01*
X117303500Y-32186452D01*
X125710653Y-32186452D01*
X125782236Y-32430421D01*
X125848386Y-32461721D01*
X125782236Y-32497079D01*
X125710653Y-32741048D01*
X126523750Y-33554145D01*
X127336847Y-32741048D01*
X127265264Y-32497079D01*
X127199114Y-32465779D01*
X127265264Y-32430421D01*
X127336847Y-32186452D01*
X126523750Y-31373355D01*
X125710653Y-32186452D01*
X117303500Y-32186452D01*
X117303500Y-31264262D01*
X125083533Y-31264262D01*
X125124963Y-31543880D01*
X125220147Y-31810042D01*
X125287079Y-31935264D01*
X125531048Y-32006847D01*
X126344145Y-31193750D01*
X126703355Y-31193750D01*
X127516452Y-32006847D01*
X127760421Y-31935264D01*
X127881321Y-31679754D01*
X127950050Y-31405566D01*
X127963967Y-31123238D01*
X127922537Y-30843620D01*
X127827353Y-30577458D01*
X127760421Y-30452236D01*
X127516452Y-30380653D01*
X126703355Y-31193750D01*
X126344145Y-31193750D01*
X125531048Y-30380653D01*
X125287079Y-30452236D01*
X125166179Y-30707746D01*
X125097450Y-30981934D01*
X125083533Y-31264262D01*
X117303500Y-31264262D01*
X117303500Y-26933607D01*
X120046750Y-26933607D01*
X120046750Y-27358893D01*
X120129720Y-27776007D01*
X120292469Y-28168920D01*
X120528746Y-28522532D01*
X120829468Y-28823254D01*
X121183080Y-29059531D01*
X121575993Y-29222280D01*
X121993107Y-29305250D01*
X122418393Y-29305250D01*
X122835507Y-29222280D01*
X123228420Y-29059531D01*
X123582032Y-28823254D01*
X123882754Y-28522532D01*
X124119031Y-28168920D01*
X124281780Y-27776007D01*
X124364750Y-27358893D01*
X124364750Y-26933607D01*
X124281780Y-26516493D01*
X124119031Y-26123580D01*
X123882754Y-25769968D01*
X123582032Y-25469246D01*
X123349317Y-25313750D01*
X125085678Y-25313750D01*
X125085678Y-26913750D01*
X125097938Y-27038232D01*
X125134248Y-27157930D01*
X125193213Y-27268244D01*
X125272565Y-27364935D01*
X125369256Y-27444287D01*
X125479570Y-27503252D01*
X125599268Y-27539562D01*
X125607711Y-27540393D01*
X125409113Y-27738991D01*
X125252070Y-27974023D01*
X125143897Y-28235176D01*
X125088750Y-28512415D01*
X125088750Y-28795085D01*
X125143897Y-29072324D01*
X125252070Y-29333477D01*
X125409113Y-29568509D01*
X125608991Y-29768387D01*
X125842878Y-29924665D01*
X125782236Y-29957079D01*
X125710653Y-30201048D01*
X126523750Y-31014145D01*
X127336847Y-30201048D01*
X127265264Y-29957079D01*
X127200758Y-29926556D01*
X127203477Y-29925430D01*
X127438509Y-29768387D01*
X127638387Y-29568509D01*
X127795430Y-29333477D01*
X127903603Y-29072324D01*
X127937377Y-28902528D01*
X132633750Y-28902528D01*
X132633750Y-29199972D01*
X132691779Y-29491701D01*
X132805606Y-29766503D01*
X132970857Y-30013819D01*
X133181181Y-30224143D01*
X133428497Y-30389394D01*
X133703299Y-30503221D01*
X133995028Y-30561250D01*
X134292472Y-30561250D01*
X134584201Y-30503221D01*
X134859003Y-30389394D01*
X134892938Y-30366719D01*
X138178824Y-30366719D01*
X139223750Y-31411645D01*
X140268676Y-30366719D01*
X140157829Y-30089536D01*
X139846910Y-29936161D01*
X139512045Y-29846390D01*
X139166100Y-29823674D01*
X138822370Y-29868884D01*
X138494065Y-29980284D01*
X138289671Y-30089536D01*
X138178824Y-30366719D01*
X134892938Y-30366719D01*
X135106319Y-30224143D01*
X135316643Y-30013819D01*
X135481894Y-29766503D01*
X135595721Y-29491701D01*
X135653750Y-29199972D01*
X135653750Y-28902528D01*
X135618291Y-28724262D01*
X140323533Y-28724262D01*
X140364963Y-29003880D01*
X140460147Y-29270042D01*
X140527079Y-29395264D01*
X140771048Y-29466847D01*
X141584145Y-28653750D01*
X141943355Y-28653750D01*
X142756452Y-29466847D01*
X143000421Y-29395264D01*
X143121321Y-29139754D01*
X143190050Y-28865566D01*
X143203967Y-28583238D01*
X143162537Y-28303620D01*
X143067353Y-28037458D01*
X143000421Y-27912236D01*
X142756452Y-27840653D01*
X141943355Y-28653750D01*
X141584145Y-28653750D01*
X140771048Y-27840653D01*
X140527079Y-27912236D01*
X140406179Y-28167746D01*
X140337450Y-28441934D01*
X140323533Y-28724262D01*
X135618291Y-28724262D01*
X135595721Y-28610799D01*
X135481894Y-28335997D01*
X135316643Y-28088681D01*
X135106319Y-27878357D01*
X134859003Y-27713106D01*
X134584201Y-27599279D01*
X134292472Y-27541250D01*
X133995028Y-27541250D01*
X133703299Y-27599279D01*
X133428497Y-27713106D01*
X133181181Y-27878357D01*
X132970857Y-28088681D01*
X132805606Y-28335997D01*
X132691779Y-28610799D01*
X132633750Y-28902528D01*
X127937377Y-28902528D01*
X127958750Y-28795085D01*
X127958750Y-28512415D01*
X127903603Y-28235176D01*
X127795430Y-27974023D01*
X127638387Y-27738991D01*
X127439789Y-27540393D01*
X127448232Y-27539562D01*
X127567930Y-27503252D01*
X127678244Y-27444287D01*
X127774935Y-27364935D01*
X127854287Y-27268244D01*
X127913252Y-27157930D01*
X127949562Y-27038232D01*
X127961822Y-26913750D01*
X127961822Y-25972415D01*
X140328750Y-25972415D01*
X140328750Y-26255085D01*
X140383897Y-26532324D01*
X140492070Y-26793477D01*
X140649113Y-27028509D01*
X140848991Y-27228387D01*
X141082878Y-27384665D01*
X141022236Y-27417079D01*
X140950653Y-27661048D01*
X141763750Y-28474145D01*
X142576847Y-27661048D01*
X142505264Y-27417079D01*
X142440758Y-27386556D01*
X142443477Y-27385430D01*
X142678509Y-27228387D01*
X142878387Y-27028509D01*
X142941798Y-26933607D01*
X143922750Y-26933607D01*
X143922750Y-27358893D01*
X144005720Y-27776007D01*
X144168469Y-28168920D01*
X144404746Y-28522532D01*
X144705468Y-28823254D01*
X145059080Y-29059531D01*
X145451993Y-29222280D01*
X145869107Y-29305250D01*
X146294393Y-29305250D01*
X146711507Y-29222280D01*
X147104420Y-29059531D01*
X147458032Y-28823254D01*
X147758754Y-28522532D01*
X147995031Y-28168920D01*
X148157780Y-27776007D01*
X148240750Y-27358893D01*
X148240750Y-26933607D01*
X148157780Y-26516493D01*
X147995031Y-26123580D01*
X147758754Y-25769968D01*
X147458032Y-25469246D01*
X147104420Y-25232969D01*
X146711507Y-25070220D01*
X146294393Y-24987250D01*
X145869107Y-24987250D01*
X145451993Y-25070220D01*
X145059080Y-25232969D01*
X144705468Y-25469246D01*
X144404746Y-25769968D01*
X144168469Y-26123580D01*
X144005720Y-26516493D01*
X143922750Y-26933607D01*
X142941798Y-26933607D01*
X143035430Y-26793477D01*
X143143603Y-26532324D01*
X143198750Y-26255085D01*
X143198750Y-25972415D01*
X143143603Y-25695176D01*
X143035430Y-25434023D01*
X142878387Y-25198991D01*
X142678509Y-24999113D01*
X142443477Y-24842070D01*
X142182324Y-24733897D01*
X141905085Y-24678750D01*
X141622415Y-24678750D01*
X141345176Y-24733897D01*
X141084023Y-24842070D01*
X140848991Y-24999113D01*
X140649113Y-25198991D01*
X140492070Y-25434023D01*
X140383897Y-25695176D01*
X140328750Y-25972415D01*
X127961822Y-25972415D01*
X127961822Y-25313750D01*
X127949562Y-25189268D01*
X127913252Y-25069570D01*
X127854287Y-24959256D01*
X127774935Y-24862565D01*
X127678244Y-24783213D01*
X127567930Y-24724248D01*
X127448232Y-24687938D01*
X127323750Y-24675678D01*
X125723750Y-24675678D01*
X125599268Y-24687938D01*
X125479570Y-24724248D01*
X125369256Y-24783213D01*
X125272565Y-24862565D01*
X125193213Y-24959256D01*
X125134248Y-25069570D01*
X125097938Y-25189268D01*
X125085678Y-25313750D01*
X123349317Y-25313750D01*
X123228420Y-25232969D01*
X122835507Y-25070220D01*
X122418393Y-24987250D01*
X121993107Y-24987250D01*
X121575993Y-25070220D01*
X121183080Y-25232969D01*
X120829468Y-25469246D01*
X120528746Y-25769968D01*
X120292469Y-26123580D01*
X120129720Y-26516493D01*
X120046750Y-26933607D01*
X117303500Y-26933607D01*
X117303500Y-25036079D01*
X117324269Y-24824262D01*
X117376410Y-24651563D01*
X117461102Y-24492282D01*
X117575119Y-24352481D01*
X117714117Y-24237492D01*
X117872805Y-24151690D01*
X118045135Y-24098345D01*
X118231094Y-24078800D01*
X150018221Y-24078800D01*
X150230038Y-24099569D01*
G04 #@! TA.AperFunction,Conductor*
D17*
G36*
X150230038Y-24099569D02*
G01*
X150402737Y-24151710D01*
X150562018Y-24236402D01*
X150701819Y-24350419D01*
X150816808Y-24489417D01*
X150902610Y-24648105D01*
X150955955Y-24820435D01*
X150978000Y-25030180D01*
X150978001Y-71798910D01*
X150957231Y-72010738D01*
X150905091Y-72183436D01*
X150820399Y-72342718D01*
X150706378Y-72482521D01*
X150567385Y-72597506D01*
X150408695Y-72683310D01*
X150236365Y-72736655D01*
X150026619Y-72758700D01*
X118263530Y-72758700D01*
X118051712Y-72737931D01*
X117879014Y-72685791D01*
X117719732Y-72601099D01*
X117579929Y-72487078D01*
X117464944Y-72348085D01*
X117379140Y-72189395D01*
X117325795Y-72017065D01*
X117303500Y-71804940D01*
X117303500Y-69478607D01*
X120046750Y-69478607D01*
X120046750Y-69903893D01*
X120129720Y-70321007D01*
X120292469Y-70713920D01*
X120528746Y-71067532D01*
X120829468Y-71368254D01*
X121183080Y-71604531D01*
X121575993Y-71767280D01*
X121993107Y-71850250D01*
X122418393Y-71850250D01*
X122835507Y-71767280D01*
X123228420Y-71604531D01*
X123343418Y-71527691D01*
X130130519Y-71527691D01*
X130227843Y-71802052D01*
X130376822Y-72052155D01*
X130571731Y-72268388D01*
X130805080Y-72442441D01*
X131067901Y-72567625D01*
X131215110Y-72612276D01*
X131445000Y-72490955D01*
X131445000Y-71297800D01*
X130251186Y-71297800D01*
X130130519Y-71527691D01*
X123343418Y-71527691D01*
X123582032Y-71368254D01*
X123882754Y-71067532D01*
X124052220Y-70813909D01*
X130130519Y-70813909D01*
X130251186Y-71043800D01*
X131445000Y-71043800D01*
X131445000Y-69850645D01*
X131699000Y-69850645D01*
X131699000Y-71043800D01*
X131719000Y-71043800D01*
X131719000Y-71297800D01*
X131699000Y-71297800D01*
X131699000Y-72490955D01*
X131928890Y-72612276D01*
X132076099Y-72567625D01*
X132338920Y-72442441D01*
X132572269Y-72268388D01*
X132767178Y-72052155D01*
X132836805Y-71935266D01*
X132958525Y-72117432D01*
X133165368Y-72324275D01*
X133408589Y-72486790D01*
X133678842Y-72598732D01*
X133965740Y-72655800D01*
X134258260Y-72655800D01*
X134545158Y-72598732D01*
X134815411Y-72486790D01*
X135058632Y-72324275D01*
X135190487Y-72192420D01*
X135212498Y-72264980D01*
X135271463Y-72375294D01*
X135350815Y-72471985D01*
X135447506Y-72551337D01*
X135557820Y-72610302D01*
X135677518Y-72646612D01*
X135802000Y-72658872D01*
X137502000Y-72658872D01*
X137626482Y-72646612D01*
X137746180Y-72610302D01*
X137856494Y-72551337D01*
X137953185Y-72471985D01*
X138032537Y-72375294D01*
X138091502Y-72264980D01*
X138127812Y-72145282D01*
X138140072Y-72020800D01*
X138140072Y-70757529D01*
X139418994Y-69478607D01*
X143922750Y-69478607D01*
X143922750Y-69903893D01*
X144005720Y-70321007D01*
X144168469Y-70713920D01*
X144404746Y-71067532D01*
X144705468Y-71368254D01*
X145059080Y-71604531D01*
X145451993Y-71767280D01*
X145869107Y-71850250D01*
X146294393Y-71850250D01*
X146711507Y-71767280D01*
X147104420Y-71604531D01*
X147458032Y-71368254D01*
X147758754Y-71067532D01*
X147995031Y-70713920D01*
X148157780Y-70321007D01*
X148240750Y-69903893D01*
X148240750Y-69478607D01*
X148157780Y-69061493D01*
X147995031Y-68668580D01*
X147758754Y-68314968D01*
X147458032Y-68014246D01*
X147104420Y-67777969D01*
X146711507Y-67615220D01*
X146294393Y-67532250D01*
X145869107Y-67532250D01*
X145451993Y-67615220D01*
X145059080Y-67777969D01*
X144705468Y-68014246D01*
X144404746Y-68314968D01*
X144168469Y-68668580D01*
X144005720Y-69061493D01*
X143922750Y-69478607D01*
X139418994Y-69478607D01*
X143399755Y-65497847D01*
X143428752Y-65474050D01*
X143523725Y-65358325D01*
X143594297Y-65226296D01*
X143637754Y-65083035D01*
X143648751Y-64971382D01*
X143648751Y-64971372D01*
X143652427Y-64934049D01*
X143648751Y-64896726D01*
X143648751Y-55447118D01*
X143752049Y-55696501D01*
X144039750Y-56127076D01*
X144405924Y-56493250D01*
X144836499Y-56780951D01*
X145314928Y-56979123D01*
X145822826Y-57080150D01*
X146340674Y-57080150D01*
X146848572Y-56979123D01*
X147327001Y-56780951D01*
X147757576Y-56493250D01*
X148123750Y-56127076D01*
X148411451Y-55696501D01*
X148609623Y-55218072D01*
X148710650Y-54710174D01*
X148710650Y-54192326D01*
X148609623Y-53684428D01*
X148411451Y-53205999D01*
X148123750Y-52775424D01*
X147757576Y-52409250D01*
X147327001Y-52121549D01*
X146848572Y-51923377D01*
X146340674Y-51822350D01*
X145822826Y-51822350D01*
X145314928Y-51923377D01*
X144836499Y-52121549D01*
X144405924Y-52409250D01*
X144039750Y-52775424D01*
X143752049Y-53205999D01*
X143648751Y-53455382D01*
X143648751Y-45396852D01*
X147478990Y-49227092D01*
X147435200Y-49447240D01*
X147435200Y-49739760D01*
X147492268Y-50026658D01*
X147604210Y-50296911D01*
X147766725Y-50540132D01*
X147973568Y-50746975D01*
X148216789Y-50909490D01*
X148487042Y-51021432D01*
X148773940Y-51078500D01*
X149066460Y-51078500D01*
X149353358Y-51021432D01*
X149623611Y-50909490D01*
X149866832Y-50746975D01*
X150073675Y-50540132D01*
X150236190Y-50296911D01*
X150348132Y-50026658D01*
X150405200Y-49739760D01*
X150405200Y-49447240D01*
X150348132Y-49160342D01*
X150236190Y-48890089D01*
X150073675Y-48646868D01*
X149941820Y-48515013D01*
X150014380Y-48493002D01*
X150124694Y-48434037D01*
X150221385Y-48354685D01*
X150300737Y-48257994D01*
X150359702Y-48147680D01*
X150396012Y-48027982D01*
X150408272Y-47903500D01*
X150405200Y-47339250D01*
X150246450Y-47180500D01*
X149047200Y-47180500D01*
X149047200Y-47200500D01*
X148793200Y-47200500D01*
X148793200Y-47180500D01*
X148773200Y-47180500D01*
X148773200Y-46926500D01*
X148793200Y-46926500D01*
X148793200Y-45727250D01*
X149047200Y-45727250D01*
X149047200Y-46926500D01*
X150246450Y-46926500D01*
X150405200Y-46767750D01*
X150408272Y-46203500D01*
X150396012Y-46079018D01*
X150359702Y-45959320D01*
X150300737Y-45849006D01*
X150221385Y-45752315D01*
X150124694Y-45672963D01*
X150014380Y-45613998D01*
X149894682Y-45577688D01*
X149770200Y-45565428D01*
X149205950Y-45568500D01*
X149047200Y-45727250D01*
X148793200Y-45727250D01*
X148634450Y-45568500D01*
X148070200Y-45565428D01*
X147945718Y-45577688D01*
X147826020Y-45613998D01*
X147715706Y-45672963D01*
X147619015Y-45752315D01*
X147539663Y-45849006D01*
X147480698Y-45959320D01*
X147444388Y-46079018D01*
X147432128Y-46203500D01*
X147435200Y-46767750D01*
X147593948Y-46926498D01*
X147435200Y-46926498D01*
X147435200Y-47033698D01*
X145315797Y-44914296D01*
X145822826Y-45015150D01*
X146340674Y-45015150D01*
X146848572Y-44914123D01*
X147327001Y-44715951D01*
X147757576Y-44428250D01*
X148123750Y-44062076D01*
X148411451Y-43631501D01*
X148609623Y-43153072D01*
X148710650Y-42645174D01*
X148710650Y-42127326D01*
X148609623Y-41619428D01*
X148411451Y-41140999D01*
X148123750Y-40710424D01*
X147757576Y-40344250D01*
X147327001Y-40056549D01*
X146848572Y-39858377D01*
X146340674Y-39757350D01*
X145822826Y-39757350D01*
X145314928Y-39858377D01*
X144836499Y-40056549D01*
X144522849Y-40266123D01*
X144522849Y-33230172D01*
X144526525Y-33192849D01*
X144522849Y-33155526D01*
X144522849Y-33155516D01*
X144511852Y-33043863D01*
X144468395Y-32900602D01*
X144460589Y-32885999D01*
X144397823Y-32768572D01*
X144326648Y-32681846D01*
X144302850Y-32652848D01*
X144273852Y-32629050D01*
X143162438Y-31517636D01*
X143198750Y-31335085D01*
X143198750Y-31052415D01*
X143143603Y-30775176D01*
X143035430Y-30514023D01*
X142878387Y-30278991D01*
X142678509Y-30079113D01*
X142444622Y-29922835D01*
X142505264Y-29890421D01*
X142576847Y-29646452D01*
X141763750Y-28833355D01*
X140950653Y-29646452D01*
X141022236Y-29890421D01*
X141086742Y-29920944D01*
X141084023Y-29922070D01*
X140848991Y-30079113D01*
X140649113Y-30278991D01*
X140492070Y-30514023D01*
X140474369Y-30556757D01*
X140448281Y-30546324D01*
X139403355Y-31591250D01*
X140448281Y-32636176D01*
X140725464Y-32525329D01*
X140837935Y-32297331D01*
X140848991Y-32308387D01*
X141081509Y-32463750D01*
X140848991Y-32619113D01*
X140649113Y-32818991D01*
X140492070Y-33054023D01*
X140383897Y-33315176D01*
X140328750Y-33592415D01*
X140328750Y-33875085D01*
X140383897Y-34152324D01*
X140492070Y-34413477D01*
X140649113Y-34648509D01*
X140848991Y-34848387D01*
X141081509Y-35003750D01*
X140848991Y-35159113D01*
X140649113Y-35358991D01*
X140492070Y-35594023D01*
X140383897Y-35855176D01*
X140328750Y-36132415D01*
X140328750Y-36415085D01*
X140383897Y-36692324D01*
X140492070Y-36953477D01*
X140649113Y-37188509D01*
X140848991Y-37388387D01*
X141081509Y-37543750D01*
X140848991Y-37699113D01*
X140649113Y-37898991D01*
X140492070Y-38134023D01*
X140383897Y-38395176D01*
X140328750Y-38672415D01*
X140328750Y-38955085D01*
X140383897Y-39232324D01*
X140492070Y-39493477D01*
X140649113Y-39728509D01*
X140848991Y-39928387D01*
X141081509Y-40083750D01*
X140848991Y-40239113D01*
X140649113Y-40438991D01*
X140492070Y-40674023D01*
X140383897Y-40935176D01*
X140328750Y-41212415D01*
X140328750Y-41495085D01*
X140383897Y-41772324D01*
X140492070Y-42033477D01*
X140649113Y-42268509D01*
X140848991Y-42468387D01*
X141081509Y-42623750D01*
X140848991Y-42779113D01*
X140649113Y-42978991D01*
X140492070Y-43214023D01*
X140383897Y-43475176D01*
X140328750Y-43752415D01*
X140328750Y-44035085D01*
X140383897Y-44312324D01*
X140492070Y-44573477D01*
X140649113Y-44808509D01*
X140848991Y-45008387D01*
X141081509Y-45163750D01*
X140848991Y-45319113D01*
X140649113Y-45518991D01*
X140492070Y-45754023D01*
X140383897Y-46015176D01*
X140328750Y-46292415D01*
X140328750Y-46575085D01*
X140365062Y-46757637D01*
X140127747Y-46994952D01*
X140098749Y-47018750D01*
X140074951Y-47047748D01*
X140074950Y-47047749D01*
X140003775Y-47134475D01*
X139933203Y-47266505D01*
X139889747Y-47409766D01*
X139875073Y-47558751D01*
X139878750Y-47596084D01*
X139878749Y-64329249D01*
X134478408Y-69729591D01*
X134258260Y-69685800D01*
X133965740Y-69685800D01*
X133678842Y-69742868D01*
X133408589Y-69854810D01*
X133165368Y-70017325D01*
X132958525Y-70224168D01*
X132836805Y-70406334D01*
X132767178Y-70289445D01*
X132572269Y-70073212D01*
X132338920Y-69899159D01*
X132076099Y-69773975D01*
X131928890Y-69729324D01*
X131699000Y-69850645D01*
X131445000Y-69850645D01*
X131215110Y-69729324D01*
X131067901Y-69773975D01*
X130805080Y-69899159D01*
X130571731Y-70073212D01*
X130376822Y-70289445D01*
X130227843Y-70539548D01*
X130130519Y-70813909D01*
X124052220Y-70813909D01*
X124119031Y-70713920D01*
X124281780Y-70321007D01*
X124364750Y-69903893D01*
X124364750Y-69478607D01*
X124281780Y-69061493D01*
X124119031Y-68668580D01*
X123882754Y-68314968D01*
X123582032Y-68014246D01*
X123228420Y-67777969D01*
X122889364Y-67637528D01*
X132633750Y-67637528D01*
X132633750Y-67934972D01*
X132691779Y-68226701D01*
X132805606Y-68501503D01*
X132970857Y-68748819D01*
X133181181Y-68959143D01*
X133428497Y-69124394D01*
X133703299Y-69238221D01*
X133995028Y-69296250D01*
X134292472Y-69296250D01*
X134584201Y-69238221D01*
X134859003Y-69124394D01*
X135106319Y-68959143D01*
X135316643Y-68748819D01*
X135481894Y-68501503D01*
X135595721Y-68226701D01*
X135653750Y-67934972D01*
X135653750Y-67637528D01*
X135595721Y-67345799D01*
X135481894Y-67070997D01*
X135316643Y-66823681D01*
X135106319Y-66613357D01*
X134859003Y-66448106D01*
X134584201Y-66334279D01*
X134292472Y-66276250D01*
X133995028Y-66276250D01*
X133703299Y-66334279D01*
X133428497Y-66448106D01*
X133181181Y-66613357D01*
X132970857Y-66823681D01*
X132805606Y-67070997D01*
X132691779Y-67345799D01*
X132633750Y-67637528D01*
X122889364Y-67637528D01*
X122835507Y-67615220D01*
X122418393Y-67532250D01*
X121993107Y-67532250D01*
X121575993Y-67615220D01*
X121183080Y-67777969D01*
X120829468Y-68014246D01*
X120528746Y-68314968D01*
X120292469Y-68668580D01*
X120129720Y-69061493D01*
X120046750Y-69478607D01*
X117303500Y-69478607D01*
X117303500Y-66470781D01*
X128018824Y-66470781D01*
X128129671Y-66747964D01*
X128440590Y-66901339D01*
X128775455Y-66991110D01*
X129121400Y-67013826D01*
X129465130Y-66968616D01*
X129793435Y-66857216D01*
X129997829Y-66747964D01*
X130108676Y-66470781D01*
X129063750Y-65425855D01*
X128018824Y-66470781D01*
X117303500Y-66470781D01*
X117303500Y-65303900D01*
X127296174Y-65303900D01*
X127341384Y-65647630D01*
X127452784Y-65975935D01*
X127562036Y-66180329D01*
X127839219Y-66291176D01*
X128884145Y-65246250D01*
X129243355Y-65246250D01*
X130288281Y-66291176D01*
X130565464Y-66180329D01*
X130718839Y-65869410D01*
X130808610Y-65534545D01*
X130831326Y-65188600D01*
X130786116Y-64844870D01*
X130674716Y-64516565D01*
X130565464Y-64312171D01*
X130288281Y-64201324D01*
X129243355Y-65246250D01*
X128884145Y-65246250D01*
X127839219Y-64201324D01*
X127562036Y-64312171D01*
X127408661Y-64623090D01*
X127318890Y-64957955D01*
X127296174Y-65303900D01*
X117303500Y-65303900D01*
X117303500Y-64021719D01*
X128018824Y-64021719D01*
X129063750Y-65066645D01*
X130108676Y-64021719D01*
X129997829Y-63744536D01*
X129686910Y-63591161D01*
X129352045Y-63501390D01*
X129006100Y-63478674D01*
X128662370Y-63523884D01*
X128334065Y-63635284D01*
X128129671Y-63744536D01*
X128018824Y-64021719D01*
X117303500Y-64021719D01*
X117303500Y-62447326D01*
X131514850Y-62447326D01*
X131514850Y-62965174D01*
X131615877Y-63473072D01*
X131814049Y-63951501D01*
X132101750Y-64382076D01*
X132467924Y-64748250D01*
X132898499Y-65035951D01*
X133376928Y-65234123D01*
X133884826Y-65335150D01*
X134402674Y-65335150D01*
X134910572Y-65234123D01*
X135389001Y-65035951D01*
X135819576Y-64748250D01*
X136185750Y-64382076D01*
X136473451Y-63951501D01*
X136671623Y-63473072D01*
X136772650Y-62965174D01*
X136772650Y-62447326D01*
X136671623Y-61939428D01*
X136473451Y-61460999D01*
X136185750Y-61030424D01*
X135819576Y-60664250D01*
X135389001Y-60376549D01*
X134910572Y-60178377D01*
X134402674Y-60077350D01*
X133884826Y-60077350D01*
X133376928Y-60178377D01*
X132898499Y-60376549D01*
X132467924Y-60664250D01*
X132101750Y-61030424D01*
X131814049Y-61460999D01*
X131615877Y-61939428D01*
X131514850Y-62447326D01*
X117303500Y-62447326D01*
X117303500Y-54192326D01*
X119576850Y-54192326D01*
X119576850Y-54710174D01*
X119677877Y-55218072D01*
X119876049Y-55696501D01*
X120163750Y-56127076D01*
X120529924Y-56493250D01*
X120960499Y-56780951D01*
X121438928Y-56979123D01*
X121946826Y-57080150D01*
X122464674Y-57080150D01*
X122972572Y-56979123D01*
X123451001Y-56780951D01*
X123881576Y-56493250D01*
X124247750Y-56127076D01*
X124535451Y-55696501D01*
X124733623Y-55218072D01*
X124834650Y-54710174D01*
X124834650Y-54192326D01*
X124733623Y-53684428D01*
X124535451Y-53205999D01*
X124247750Y-52775424D01*
X123881576Y-52409250D01*
X123451001Y-52121549D01*
X122972572Y-51923377D01*
X122464674Y-51822350D01*
X121946826Y-51822350D01*
X121438928Y-51923377D01*
X120960499Y-52121549D01*
X120529924Y-52409250D01*
X120163750Y-52775424D01*
X119876049Y-53205999D01*
X119677877Y-53684428D01*
X119576850Y-54192326D01*
X117303500Y-54192326D01*
X117303500Y-42127326D01*
X119576850Y-42127326D01*
X119576850Y-42645174D01*
X119677877Y-43153072D01*
X119876049Y-43631501D01*
X120163750Y-44062076D01*
X120529924Y-44428250D01*
X120960499Y-44715951D01*
X121438928Y-44914123D01*
X121946826Y-45015150D01*
X122464674Y-45015150D01*
X122972572Y-44914123D01*
X123451001Y-44715951D01*
X123881576Y-44428250D01*
X124247750Y-44062076D01*
X124535451Y-43631501D01*
X124733623Y-43153072D01*
X124834650Y-42645174D01*
X124834650Y-42127326D01*
X124733623Y-41619428D01*
X124535451Y-41140999D01*
X124247750Y-40710424D01*
X123881576Y-40344250D01*
X123451001Y-40056549D01*
X122972572Y-39858377D01*
X122464674Y-39757350D01*
X121946826Y-39757350D01*
X121438928Y-39858377D01*
X120960499Y-40056549D01*
X120529924Y-40344250D01*
X120163750Y-40710424D01*
X119876049Y-41140999D01*
X119677877Y-41619428D01*
X119576850Y-42127326D01*
X117303500Y-42127326D01*
X117303500Y-36132415D01*
X125088750Y-36132415D01*
X125088750Y-36415085D01*
X125143897Y-36692324D01*
X125252070Y-36953477D01*
X125409113Y-37188509D01*
X125608991Y-37388387D01*
X125841509Y-37543750D01*
X125608991Y-37699113D01*
X125409113Y-37898991D01*
X125252070Y-38134023D01*
X125143897Y-38395176D01*
X125088750Y-38672415D01*
X125088750Y-38955085D01*
X125143897Y-39232324D01*
X125252070Y-39493477D01*
X125409113Y-39728509D01*
X125608991Y-39928387D01*
X125841509Y-40083750D01*
X125608991Y-40239113D01*
X125409113Y-40438991D01*
X125252070Y-40674023D01*
X125143897Y-40935176D01*
X125088750Y-41212415D01*
X125088750Y-41495085D01*
X125143897Y-41772324D01*
X125252070Y-42033477D01*
X125409113Y-42268509D01*
X125608991Y-42468387D01*
X125841509Y-42623750D01*
X125608991Y-42779113D01*
X125409113Y-42978991D01*
X125252070Y-43214023D01*
X125143897Y-43475176D01*
X125088750Y-43752415D01*
X125088750Y-44035085D01*
X125143897Y-44312324D01*
X125252070Y-44573477D01*
X125409113Y-44808509D01*
X125608991Y-45008387D01*
X125841509Y-45163750D01*
X125608991Y-45319113D01*
X125409113Y-45518991D01*
X125252070Y-45754023D01*
X125143897Y-46015176D01*
X125088750Y-46292415D01*
X125088750Y-46575085D01*
X125143897Y-46852324D01*
X125252070Y-47113477D01*
X125409113Y-47348509D01*
X125608991Y-47548387D01*
X125841509Y-47703750D01*
X125608991Y-47859113D01*
X125409113Y-48058991D01*
X125252070Y-48294023D01*
X125143897Y-48555176D01*
X125088750Y-48832415D01*
X125088750Y-49115085D01*
X125143897Y-49392324D01*
X125252070Y-49653477D01*
X125409113Y-49888509D01*
X125608991Y-50088387D01*
X125841509Y-50243750D01*
X125608991Y-50399113D01*
X125409113Y-50598991D01*
X125252070Y-50834023D01*
X125143897Y-51095176D01*
X125088750Y-51372415D01*
X125088750Y-51655085D01*
X125143897Y-51932324D01*
X125252070Y-52193477D01*
X125409113Y-52428509D01*
X125608991Y-52628387D01*
X125841509Y-52783750D01*
X125608991Y-52939113D01*
X125409113Y-53138991D01*
X125252070Y-53374023D01*
X125143897Y-53635176D01*
X125088750Y-53912415D01*
X125088750Y-54195085D01*
X125143897Y-54472324D01*
X125252070Y-54733477D01*
X125409113Y-54968509D01*
X125608991Y-55168387D01*
X125844023Y-55325430D01*
X126105176Y-55433603D01*
X126382415Y-55488750D01*
X126665085Y-55488750D01*
X126942324Y-55433603D01*
X127203477Y-55325430D01*
X127438509Y-55168387D01*
X127638387Y-54968509D01*
X127795430Y-54733477D01*
X127903603Y-54472324D01*
X127958750Y-54195085D01*
X127958750Y-53912415D01*
X127903603Y-53635176D01*
X127795430Y-53374023D01*
X127638387Y-53138991D01*
X127438509Y-52939113D01*
X127205991Y-52783750D01*
X127438509Y-52628387D01*
X127638387Y-52428509D01*
X127795430Y-52193477D01*
X127903603Y-51932324D01*
X127958750Y-51655085D01*
X127958750Y-51483551D01*
X130843751Y-54368553D01*
X130843750Y-57306042D01*
X130770077Y-57336558D01*
X130481815Y-57529169D01*
X130236669Y-57774315D01*
X130044058Y-58062577D01*
X129911386Y-58382877D01*
X129843750Y-58722905D01*
X129843750Y-59069595D01*
X129911386Y-59409623D01*
X130044058Y-59729923D01*
X130236669Y-60018185D01*
X130481815Y-60263331D01*
X130770077Y-60455942D01*
X131090377Y-60588614D01*
X131430405Y-60656250D01*
X131777095Y-60656250D01*
X132117123Y-60588614D01*
X132437423Y-60455942D01*
X132725685Y-60263331D01*
X132970831Y-60018185D01*
X133163442Y-59729923D01*
X133296114Y-59409623D01*
X133363750Y-59069595D01*
X133363750Y-58921132D01*
X133428497Y-58964394D01*
X133703299Y-59078221D01*
X133995028Y-59136250D01*
X134292472Y-59136250D01*
X134584201Y-59078221D01*
X134859003Y-58964394D01*
X135106319Y-58799143D01*
X135316643Y-58588819D01*
X135481894Y-58341503D01*
X135595721Y-58066701D01*
X135653750Y-57774972D01*
X135653750Y-57477528D01*
X135595721Y-57185799D01*
X135481894Y-56910997D01*
X135316643Y-56663681D01*
X135106319Y-56453357D01*
X134859003Y-56288106D01*
X134584201Y-56174279D01*
X134292472Y-56116250D01*
X133995028Y-56116250D01*
X133703299Y-56174279D01*
X133428497Y-56288106D01*
X133181181Y-56453357D01*
X132970857Y-56663681D01*
X132805606Y-56910997D01*
X132691779Y-57185799D01*
X132635469Y-57468888D01*
X132437423Y-57336558D01*
X132363750Y-57306042D01*
X132363750Y-54091073D01*
X132367426Y-54053750D01*
X132363750Y-54016427D01*
X132363750Y-54016417D01*
X132352753Y-53904764D01*
X132309296Y-53761503D01*
X132241772Y-53635176D01*
X132238724Y-53629473D01*
X132167549Y-53542747D01*
X132143751Y-53513749D01*
X132114753Y-53489951D01*
X127922438Y-49297637D01*
X127958750Y-49115085D01*
X127958750Y-48832415D01*
X127903603Y-48555176D01*
X127795430Y-48294023D01*
X127638387Y-48058991D01*
X127438509Y-47859113D01*
X127205991Y-47703750D01*
X127438509Y-47548387D01*
X127638387Y-47348509D01*
X127741793Y-47193750D01*
X129744918Y-47193750D01*
X129782240Y-47197426D01*
X129819562Y-47193750D01*
X129819573Y-47193750D01*
X129931226Y-47182753D01*
X130074487Y-47139296D01*
X130206516Y-47068724D01*
X130322241Y-46973751D01*
X130346044Y-46944747D01*
X137194753Y-40096039D01*
X137223751Y-40072241D01*
X137304460Y-39973897D01*
X137318724Y-39956517D01*
X137389296Y-39824487D01*
X137418410Y-39728509D01*
X137432753Y-39681226D01*
X137443750Y-39569573D01*
X137443750Y-39569564D01*
X137447426Y-39532241D01*
X137447208Y-39530026D01*
X137517423Y-39500942D01*
X137805685Y-39308331D01*
X138050831Y-39063185D01*
X138243442Y-38774923D01*
X138376114Y-38454623D01*
X138443750Y-38114595D01*
X138443750Y-37767905D01*
X138376114Y-37427877D01*
X138243442Y-37107577D01*
X138050831Y-36819315D01*
X137805685Y-36574169D01*
X137517423Y-36381558D01*
X137197123Y-36248886D01*
X136857095Y-36181250D01*
X136510405Y-36181250D01*
X136170377Y-36248886D01*
X135850077Y-36381558D01*
X135561815Y-36574169D01*
X135316669Y-36819315D01*
X135124058Y-37107577D01*
X134991386Y-37427877D01*
X134923750Y-37767905D01*
X134923750Y-37916368D01*
X134859003Y-37873106D01*
X134584201Y-37759279D01*
X134292472Y-37701250D01*
X133995028Y-37701250D01*
X133703299Y-37759279D01*
X133428497Y-37873106D01*
X133181181Y-38038357D01*
X132970857Y-38248681D01*
X132805606Y-38495997D01*
X132691779Y-38770799D01*
X132633750Y-39062528D01*
X132633750Y-39359972D01*
X132691779Y-39651701D01*
X132805606Y-39926503D01*
X132970857Y-40173819D01*
X133181181Y-40384143D01*
X133428497Y-40549394D01*
X133703299Y-40663221D01*
X133995028Y-40721250D01*
X134292472Y-40721250D01*
X134451589Y-40689599D01*
X129467439Y-45673750D01*
X127741793Y-45673750D01*
X127638387Y-45518991D01*
X127438509Y-45319113D01*
X127205991Y-45163750D01*
X127438509Y-45008387D01*
X127638387Y-44808509D01*
X127795430Y-44573477D01*
X127903603Y-44312324D01*
X127958750Y-44035085D01*
X127958750Y-43752415D01*
X127903603Y-43475176D01*
X127795430Y-43214023D01*
X127638387Y-42978991D01*
X127438509Y-42779113D01*
X127205991Y-42623750D01*
X127438509Y-42468387D01*
X127638387Y-42268509D01*
X127795430Y-42033477D01*
X127903603Y-41772324D01*
X127958750Y-41495085D01*
X127958750Y-41212415D01*
X127903603Y-40935176D01*
X127795430Y-40674023D01*
X127638387Y-40438991D01*
X127438509Y-40239113D01*
X127205991Y-40083750D01*
X127438509Y-39928387D01*
X127638387Y-39728509D01*
X127795430Y-39493477D01*
X127903603Y-39232324D01*
X127958750Y-38955085D01*
X127958750Y-38672415D01*
X127903603Y-38395176D01*
X127795430Y-38134023D01*
X127638387Y-37898991D01*
X127438509Y-37699113D01*
X127205991Y-37543750D01*
X127438509Y-37388387D01*
X127638387Y-37188509D01*
X127795430Y-36953477D01*
X127903603Y-36692324D01*
X127958750Y-36415085D01*
X127958750Y-36132415D01*
X127903603Y-35855176D01*
X127795430Y-35594023D01*
X127638387Y-35358991D01*
X127438509Y-35159113D01*
X127204622Y-35002835D01*
X127265264Y-34970421D01*
X127336847Y-34726452D01*
X126523750Y-33913355D01*
X125710653Y-34726452D01*
X125782236Y-34970421D01*
X125846742Y-35000944D01*
X125844023Y-35002070D01*
X125608991Y-35159113D01*
X125409113Y-35358991D01*
X125252070Y-35594023D01*
X125143897Y-35855176D01*
X125088750Y-36132415D01*
X117303500Y-36132415D01*
X117303500Y-33804262D01*
X125083533Y-33804262D01*
X125124963Y-34083880D01*
X125220147Y-34350042D01*
X125287079Y-34475264D01*
X125531048Y-34546847D01*
X126344145Y-33733750D01*
X126703355Y-33733750D01*
X127516452Y-34546847D01*
X127760421Y-34475264D01*
X127881321Y-34219754D01*
X127950050Y-33945566D01*
X127953660Y-33872326D01*
X131514850Y-33872326D01*
X131514850Y-34390174D01*
X131615877Y-34898072D01*
X131814049Y-35376501D01*
X132101750Y-35807076D01*
X132467924Y-36173250D01*
X132898499Y-36460951D01*
X133376928Y-36659123D01*
X133884826Y-36760150D01*
X134402674Y-36760150D01*
X134910572Y-36659123D01*
X135389001Y-36460951D01*
X135819576Y-36173250D01*
X136185750Y-35807076D01*
X136473451Y-35376501D01*
X136671623Y-34898072D01*
X136772650Y-34390174D01*
X136772650Y-33872326D01*
X136671623Y-33364428D01*
X136473451Y-32885999D01*
X136426533Y-32815781D01*
X138178824Y-32815781D01*
X138289671Y-33092964D01*
X138600590Y-33246339D01*
X138935455Y-33336110D01*
X139281400Y-33358826D01*
X139625130Y-33313616D01*
X139953435Y-33202216D01*
X140157829Y-33092964D01*
X140268676Y-32815781D01*
X139223750Y-31770855D01*
X138178824Y-32815781D01*
X136426533Y-32815781D01*
X136185750Y-32455424D01*
X135819576Y-32089250D01*
X135389001Y-31801549D01*
X135020475Y-31648900D01*
X137456174Y-31648900D01*
X137501384Y-31992630D01*
X137612784Y-32320935D01*
X137722036Y-32525329D01*
X137999219Y-32636176D01*
X139044145Y-31591250D01*
X137999219Y-30546324D01*
X137722036Y-30657171D01*
X137568661Y-30968090D01*
X137478890Y-31302955D01*
X137456174Y-31648900D01*
X135020475Y-31648900D01*
X134910572Y-31603377D01*
X134402674Y-31502350D01*
X133884826Y-31502350D01*
X133376928Y-31603377D01*
X132898499Y-31801549D01*
X132467924Y-32089250D01*
X132101750Y-32455424D01*
X131814049Y-32885999D01*
X131615877Y-33364428D01*
X131514850Y-33872326D01*
X127953660Y-33872326D01*
X127963967Y-33663238D01*
X127922537Y-33383620D01*
X127827353Y-33117458D01*
X127760421Y-32992236D01*
X127516452Y-32920653D01*
X126703355Y-33733750D01*
X126344145Y-33733750D01*
X125531048Y-32920653D01*
X125287079Y-32992236D01*
X125166179Y-33247746D01*
X125097450Y-33521934D01*
X125083533Y-33804262D01*
X117303500Y-33804262D01*
X117303500Y-32186452D01*
X125710653Y-32186452D01*
X125782236Y-32430421D01*
X125848386Y-32461721D01*
X125782236Y-32497079D01*
X125710653Y-32741048D01*
X126523750Y-33554145D01*
X127336847Y-32741048D01*
X127265264Y-32497079D01*
X127199114Y-32465779D01*
X127265264Y-32430421D01*
X127336847Y-32186452D01*
X126523750Y-31373355D01*
X125710653Y-32186452D01*
X117303500Y-32186452D01*
X117303500Y-31264262D01*
X125083533Y-31264262D01*
X125124963Y-31543880D01*
X125220147Y-31810042D01*
X125287079Y-31935264D01*
X125531048Y-32006847D01*
X126344145Y-31193750D01*
X126703355Y-31193750D01*
X127516452Y-32006847D01*
X127760421Y-31935264D01*
X127881321Y-31679754D01*
X127950050Y-31405566D01*
X127963967Y-31123238D01*
X127922537Y-30843620D01*
X127827353Y-30577458D01*
X127760421Y-30452236D01*
X127516452Y-30380653D01*
X126703355Y-31193750D01*
X126344145Y-31193750D01*
X125531048Y-30380653D01*
X125287079Y-30452236D01*
X125166179Y-30707746D01*
X125097450Y-30981934D01*
X125083533Y-31264262D01*
X117303500Y-31264262D01*
X117303500Y-26933607D01*
X120046750Y-26933607D01*
X120046750Y-27358893D01*
X120129720Y-27776007D01*
X120292469Y-28168920D01*
X120528746Y-28522532D01*
X120829468Y-28823254D01*
X121183080Y-29059531D01*
X121575993Y-29222280D01*
X121993107Y-29305250D01*
X122418393Y-29305250D01*
X122835507Y-29222280D01*
X123228420Y-29059531D01*
X123582032Y-28823254D01*
X123882754Y-28522532D01*
X124119031Y-28168920D01*
X124281780Y-27776007D01*
X124364750Y-27358893D01*
X124364750Y-26933607D01*
X124281780Y-26516493D01*
X124119031Y-26123580D01*
X123882754Y-25769968D01*
X123582032Y-25469246D01*
X123349317Y-25313750D01*
X125085678Y-25313750D01*
X125085678Y-26913750D01*
X125097938Y-27038232D01*
X125134248Y-27157930D01*
X125193213Y-27268244D01*
X125272565Y-27364935D01*
X125369256Y-27444287D01*
X125479570Y-27503252D01*
X125599268Y-27539562D01*
X125607711Y-27540393D01*
X125409113Y-27738991D01*
X125252070Y-27974023D01*
X125143897Y-28235176D01*
X125088750Y-28512415D01*
X125088750Y-28795085D01*
X125143897Y-29072324D01*
X125252070Y-29333477D01*
X125409113Y-29568509D01*
X125608991Y-29768387D01*
X125842878Y-29924665D01*
X125782236Y-29957079D01*
X125710653Y-30201048D01*
X126523750Y-31014145D01*
X127336847Y-30201048D01*
X127265264Y-29957079D01*
X127200758Y-29926556D01*
X127203477Y-29925430D01*
X127438509Y-29768387D01*
X127638387Y-29568509D01*
X127795430Y-29333477D01*
X127903603Y-29072324D01*
X127937377Y-28902528D01*
X132633750Y-28902528D01*
X132633750Y-29199972D01*
X132691779Y-29491701D01*
X132805606Y-29766503D01*
X132970857Y-30013819D01*
X133181181Y-30224143D01*
X133428497Y-30389394D01*
X133703299Y-30503221D01*
X133995028Y-30561250D01*
X134292472Y-30561250D01*
X134584201Y-30503221D01*
X134859003Y-30389394D01*
X134892938Y-30366719D01*
X138178824Y-30366719D01*
X139223750Y-31411645D01*
X140268676Y-30366719D01*
X140157829Y-30089536D01*
X139846910Y-29936161D01*
X139512045Y-29846390D01*
X139166100Y-29823674D01*
X138822370Y-29868884D01*
X138494065Y-29980284D01*
X138289671Y-30089536D01*
X138178824Y-30366719D01*
X134892938Y-30366719D01*
X135106319Y-30224143D01*
X135316643Y-30013819D01*
X135481894Y-29766503D01*
X135595721Y-29491701D01*
X135653750Y-29199972D01*
X135653750Y-28902528D01*
X135618291Y-28724262D01*
X140323533Y-28724262D01*
X140364963Y-29003880D01*
X140460147Y-29270042D01*
X140527079Y-29395264D01*
X140771048Y-29466847D01*
X141584145Y-28653750D01*
X141943355Y-28653750D01*
X142756452Y-29466847D01*
X143000421Y-29395264D01*
X143121321Y-29139754D01*
X143190050Y-28865566D01*
X143203967Y-28583238D01*
X143162537Y-28303620D01*
X143067353Y-28037458D01*
X143000421Y-27912236D01*
X142756452Y-27840653D01*
X141943355Y-28653750D01*
X141584145Y-28653750D01*
X140771048Y-27840653D01*
X140527079Y-27912236D01*
X140406179Y-28167746D01*
X140337450Y-28441934D01*
X140323533Y-28724262D01*
X135618291Y-28724262D01*
X135595721Y-28610799D01*
X135481894Y-28335997D01*
X135316643Y-28088681D01*
X135106319Y-27878357D01*
X134859003Y-27713106D01*
X134584201Y-27599279D01*
X134292472Y-27541250D01*
X133995028Y-27541250D01*
X133703299Y-27599279D01*
X133428497Y-27713106D01*
X133181181Y-27878357D01*
X132970857Y-28088681D01*
X132805606Y-28335997D01*
X132691779Y-28610799D01*
X132633750Y-28902528D01*
X127937377Y-28902528D01*
X127958750Y-28795085D01*
X127958750Y-28512415D01*
X127903603Y-28235176D01*
X127795430Y-27974023D01*
X127638387Y-27738991D01*
X127439789Y-27540393D01*
X127448232Y-27539562D01*
X127567930Y-27503252D01*
X127678244Y-27444287D01*
X127774935Y-27364935D01*
X127854287Y-27268244D01*
X127913252Y-27157930D01*
X127949562Y-27038232D01*
X127961822Y-26913750D01*
X127961822Y-25972415D01*
X140328750Y-25972415D01*
X140328750Y-26255085D01*
X140383897Y-26532324D01*
X140492070Y-26793477D01*
X140649113Y-27028509D01*
X140848991Y-27228387D01*
X141082878Y-27384665D01*
X141022236Y-27417079D01*
X140950653Y-27661048D01*
X141763750Y-28474145D01*
X142576847Y-27661048D01*
X142505264Y-27417079D01*
X142440758Y-27386556D01*
X142443477Y-27385430D01*
X142678509Y-27228387D01*
X142878387Y-27028509D01*
X142941798Y-26933607D01*
X143922750Y-26933607D01*
X143922750Y-27358893D01*
X144005720Y-27776007D01*
X144168469Y-28168920D01*
X144404746Y-28522532D01*
X144705468Y-28823254D01*
X145059080Y-29059531D01*
X145451993Y-29222280D01*
X145869107Y-29305250D01*
X146294393Y-29305250D01*
X146711507Y-29222280D01*
X147104420Y-29059531D01*
X147458032Y-28823254D01*
X147758754Y-28522532D01*
X147995031Y-28168920D01*
X148157780Y-27776007D01*
X148240750Y-27358893D01*
X148240750Y-26933607D01*
X148157780Y-26516493D01*
X147995031Y-26123580D01*
X147758754Y-25769968D01*
X147458032Y-25469246D01*
X147104420Y-25232969D01*
X146711507Y-25070220D01*
X146294393Y-24987250D01*
X145869107Y-24987250D01*
X145451993Y-25070220D01*
X145059080Y-25232969D01*
X144705468Y-25469246D01*
X144404746Y-25769968D01*
X144168469Y-26123580D01*
X144005720Y-26516493D01*
X143922750Y-26933607D01*
X142941798Y-26933607D01*
X143035430Y-26793477D01*
X143143603Y-26532324D01*
X143198750Y-26255085D01*
X143198750Y-25972415D01*
X143143603Y-25695176D01*
X143035430Y-25434023D01*
X142878387Y-25198991D01*
X142678509Y-24999113D01*
X142443477Y-24842070D01*
X142182324Y-24733897D01*
X141905085Y-24678750D01*
X141622415Y-24678750D01*
X141345176Y-24733897D01*
X141084023Y-24842070D01*
X140848991Y-24999113D01*
X140649113Y-25198991D01*
X140492070Y-25434023D01*
X140383897Y-25695176D01*
X140328750Y-25972415D01*
X127961822Y-25972415D01*
X127961822Y-25313750D01*
X127949562Y-25189268D01*
X127913252Y-25069570D01*
X127854287Y-24959256D01*
X127774935Y-24862565D01*
X127678244Y-24783213D01*
X127567930Y-24724248D01*
X127448232Y-24687938D01*
X127323750Y-24675678D01*
X125723750Y-24675678D01*
X125599268Y-24687938D01*
X125479570Y-24724248D01*
X125369256Y-24783213D01*
X125272565Y-24862565D01*
X125193213Y-24959256D01*
X125134248Y-25069570D01*
X125097938Y-25189268D01*
X125085678Y-25313750D01*
X123349317Y-25313750D01*
X123228420Y-25232969D01*
X122835507Y-25070220D01*
X122418393Y-24987250D01*
X121993107Y-24987250D01*
X121575993Y-25070220D01*
X121183080Y-25232969D01*
X120829468Y-25469246D01*
X120528746Y-25769968D01*
X120292469Y-26123580D01*
X120129720Y-26516493D01*
X120046750Y-26933607D01*
X117303500Y-26933607D01*
X117303500Y-25036079D01*
X117324269Y-24824262D01*
X117376410Y-24651563D01*
X117461102Y-24492282D01*
X117575119Y-24352481D01*
X117714117Y-24237492D01*
X117872805Y-24151690D01*
X118045135Y-24098345D01*
X118231094Y-24078800D01*
X150018221Y-24078800D01*
X150230038Y-24099569D01*
G37*
G04 #@! TD.AperFunction*
G04 #@! TD*
M02*
