M48
; DRILL file {KiCad (5.1.10)-1} date 08/17/21 09:51:20
; FORMAT={-:-/ absolute / inch / decimal}
; #@! TF.CreationDate,2021-08-17T09:51:20-04:00
; #@! TF.GenerationSoftware,Kicad,Pcbnew,(5.1.10)-1
; #@! TF.FileFunction,Plated,1,2,PTH
FMAT,2
INCH
T1C0.0394
T2C0.0433
T3C0.0591
%
G90
G05
T1
X5.18Y-2.802
X5.28Y-2.802
X5.38Y-2.802
X5.863Y-1.8525
X5.863Y-1.9525
T2
X4.9813Y-1.0281
X4.9813Y-1.1281
X4.9813Y-1.2281
X4.9813Y-1.3281
X4.9813Y-1.4281
X4.9813Y-1.5281
X4.9813Y-1.6281
X4.9813Y-1.7281
X4.9813Y-1.8281
X4.9813Y-1.9281
X4.9813Y-2.0281
X4.9813Y-2.1281
X5.5812Y-1.0281
X5.5812Y-1.1281
X5.5812Y-1.2281
X5.5812Y-1.3281
X5.5812Y-1.4281
X5.5812Y-1.5281
X5.5812Y-1.6281
X5.5812Y-1.7281
X5.5812Y-1.8281
X5.5812Y-1.9281
X5.5812Y-2.0281
X5.5812Y-2.1281
T3
X5.0812Y-2.5688
X5.1812Y-2.3188
X5.3812Y-1.4937
X5.4813Y-1.2437
T0
M30
